<?xml version="1.0" encoding="UTF-8" standalone="no"?>
<!DOCTYPE svg PUBLIC "-//W3C//DTD SVG 1.1//EN" "http://www.w3.org/Graphics/SVG/1.1/DTD/svg11.dtd">
<svg version="1.1" xmlns="http://www.w3.org/2000/svg" xmlns:xlink="http://www.w3.org/1999/xlink" preserveAspectRatio="xMidYMid meet" viewBox="0 0 1133.858 566.929" width="1133.86" height="566.93"><defs><path d="M195.74 378.52C148.05 422.56 97.45 463.34 44.27 500.58C40.98 502.8 39.66 507 41.08 510.71C42.51 514.42 46.3 516.65 50.23 516.1C145.03 503.73 247.39 435.93 267.12 422.35C427.21 460.64 499.28 348.49 513.61 301.64C520.29 281.31 519.97 259.33 512.69 239.21C513.6 233.99 520.89 192.26 521.8 187.04C522.33 184 521.18 180.9 518.78 178.95C516.38 177 513.12 176.5 510.25 177.64C505.42 179.56 466.78 194.87 461.95 196.79C440.92 190.96 418.38 195.33 401.05 208.6C393.71 193.42 388.73 177.21 386.3 160.53C375.87 98.91 347.06 90.11 313.7 79.91C262.77 62.52 213.17 41.46 165.29 16.88C162.82 15.5 159.83 15.42 157.3 16.69C154.76 17.96 153.03 20.39 152.65 23.2C152.36 25.46 150.69 45.66 179.3 72.77C184.41 94.26 196.07 113.63 212.67 128.2C212.84 151 224.07 172.29 242.78 185.31C233.87 187.05 223.91 189.24 213.5 191.53C167.34 201.77 104.08 215.78 61.94 202.9C58.93 201.98 55.66 202.79 53.43 205.01C51.2 207.23 50.37 210.5 51.27 213.51C51.91 215.62 62.32 247.6 110.42 262.31C114.28 263.49 118.46 264.53 122.84 265.46C134 282.08 150.65 294.24 169.88 299.81C174.9 301.3 180.03 302.41 185.22 303.15C188.53 306.8 192.26 310.06 196.32 312.87C104.09 333.29 1.3 314.48 0.16 314.26C-4 313.47 -8.12 315.86 -9.5 319.87C-10.88 323.87 -9.11 328.29 -5.34 330.23C61.45 364.69 155.28 375.39 195.74 378.52ZM502.37 199.16C500.41 210.34 499.32 216.55 499.11 217.79C494.77 213.31 489.85 209.43 484.49 206.25C486.88 205.3 492.83 202.94 502.37 199.16ZM294.42 172.17C298.92 173.54 303.69 171.01 305.07 166.5C306.45 161.99 303.91 157.22 299.41 155.85C272.86 148.58 248.17 135.76 226.95 118.24C218.71 111.14 211.63 102.81 205.94 93.54C234.15 111.35 264.29 125.89 295.78 136.89C300.21 138.52 305.12 136.25 306.75 131.82C308.38 127.39 306.11 122.48 301.68 120.85C252.11 102.6 215.54 82.86 192.86 62.11C185.96 56.06 179.99 49.02 175.15 41.22C218.52 62.23 263.12 80.6 308.71 96.23C341.19 106.16 360.79 112.15 369.38 163.37C372.25 183.39 378.58 202.76 388.09 220.62C378.45 230.97 371.16 243.29 366.72 256.73C365.28 260.75 362.59 264.2 359.04 266.58C353.51 263.71 348.31 260.26 343.51 256.29C330.77 245.22 319.92 232.15 311.37 217.59C309.61 214.86 307.85 212.16 306.06 209.54C308.84 208.62 310.94 206.33 311.61 203.48C312.11 201.26 311.7 198.94 310.48 197.02C309.25 195.11 307.32 193.76 305.1 193.28C297.71 191.68 290.42 189.65 283.27 187.2C283.26 187.2 283.22 187.19 283.21 187.19C280.84 186.02 278.37 185.09 275.82 184.4C270.44 182.23 265.25 179.63 260.29 176.61C247.15 169.49 237.1 157.76 232.11 143.67C251.37 156.17 272.36 165.77 294.42 172.17ZM148.38 269.01C177.66 270.54 207.01 268.07 235.63 261.66C240.24 260.72 243.22 256.2 242.27 251.59C241.32 246.97 236.81 244 232.19 244.94C135.66 264.79 94.35 241 77.78 223.61C121.69 229.36 175.99 217.34 217.22 208.24C230.81 205.26 243.66 202.4 254.01 200.66C277.53 196.71 284.05 206.8 297.04 226.88C306.53 242.91 318.55 257.29 332.65 269.46C352.36 286.69 378.5 294.66 404.47 291.37C407.5 290.97 410.08 288.99 411.24 286.17C412.41 283.36 411.98 280.13 410.13 277.71C408.27 275.29 405.27 274.05 402.24 274.45C393.74 275.55 385.1 275.13 376.75 273.19C379.58 269.82 381.72 265.93 383.04 261.72C387.36 248.84 394.78 237.22 404.65 227.88C417.85 215.19 436.29 209.52 454.33 212.6C472.38 215.69 487.88 227.17 496.1 243.53C502.75 260.55 503.17 279.36 497.29 296.65C496.83 298.13 449.1 437.76 287.91 409.18C307.49 398.19 328.42 389.81 350.17 384.25C411.02 369.1 432.84 355.29 444.58 322.55C453.1 303.92 452.15 282.34 442.03 264.53C440.49 260.09 441.32 255.17 444.23 251.49C447.22 247.92 451.94 247.09 458.3 249.04C462.81 250.42 467.58 247.88 468.96 243.38C470.34 238.87 467.8 234.1 463.29 232.72C451.96 228.3 439.08 231.47 431.1 240.64C423.77 249.62 422.17 261.98 426.96 272.54C434.04 284.44 435.23 298.94 430.18 311.83C426.79 322.92 420.8 334.72 409.8 338.61C403.26 340.56 396.27 340.42 389.81 338.22C392.06 336.35 394.2 334.36 396.23 332.25C399.48 328.84 399.34 323.43 395.92 320.18C392.51 316.94 387.1 317.07 383.86 320.49C379.49 325.25 374.26 329.14 368.45 331.97C361.49 335.12 353.64 335.68 346.3 333.57C351.9 330.48 357.29 327.03 362.45 323.24C366.25 320.47 367.09 315.13 364.31 311.32C361.53 307.51 356.19 306.68 352.38 309.46C343.59 316.1 333.85 321.39 323.49 325.16C308.18 331.16 290.98 329.94 276.67 321.84C288.81 318.65 300.65 314.41 312.04 309.16C314.82 307.89 316.71 305.24 317.01 302.2C317.3 299.17 315.95 296.2 313.47 294.43C310.98 292.66 307.74 292.34 304.97 293.61C289.51 301.04 273.01 306.1 256.04 308.61C245.31 310.2 234.38 309.65 223.87 306.99C223.84 306.99 223.65 306.93 223.62 306.92C221.05 306.21 218.52 305.33 216.06 304.29C238.14 302.69 259.94 298.35 280.94 291.37C285.4 289.92 287.86 285.14 286.44 280.67C285.02 276.2 280.26 273.71 275.78 275.1C248.53 284.88 219.54 288.86 190.67 286.79C175.08 285.35 160.31 279.14 148.38 269.01ZM253.84 325.95C272.65 344.31 300.1 350.68 325.08 342.49C329.79 345.48 334.85 347.86 340.15 349.59C350.26 352.75 361.13 352.55 371.12 349.02C375.33 351.2 379.72 353.01 384.25 354.41C385.25 354.72 386.35 354.92 387.39 355.19C373.88 360.24 360.07 364.43 346.03 367.72C315.45 375.42 286.46 388.45 260.4 406.21C259.42 406.91 173.88 467.2 86.43 491.25C133.92 456.24 179.1 418.18 221.67 377.33C224.11 374.95 224.89 371.34 223.66 368.16C222.43 364.98 219.42 362.84 216.01 362.71C164.58 360 113.56 351.91 63.81 338.56C116.82 342.5 170.12 337.56 221.5 323.95C232.08 326.43 243.02 327.1 253.84 325.95Z" id="c16RYq77An"></path><path d="M996.54 409.56C985.81 423.87 979.85 431.82 978.66 433.41C975.83 437.18 976.59 442.53 980.36 445.36C984.13 448.19 989.48 447.42 992.31 443.65C993.56 441.98 999.82 433.64 1011.08 418.63C1022.35 433.64 1028.61 441.98 1029.86 443.65C1032.69 447.42 1038.03 448.19 1041.8 445.36C1045.57 442.53 1046.34 437.18 1043.51 433.41C1042.32 431.82 1036.34 423.87 1025.59 409.56C1038.59 406.31 1045.81 404.51 1047.26 404.14C1050.23 403.42 1052.59 401.16 1053.44 398.21C1054.29 395.27 1053.5 392.1 1051.36 389.9C1049.22 387.71 1046.08 386.82 1043.11 387.59C1041.54 387.98 1033.71 389.94 1019.62 393.47C1019.62 379.55 1019.62 371.81 1019.62 370.27C1019.62 365.55 1015.8 361.73 1011.08 361.73C1006.37 361.73 1002.55 365.55 1002.55 370.27C1002.55 371.81 1002.55 379.55 1002.55 393.47C988.44 389.94 980.59 387.98 979.02 387.59C974.47 386.48 969.87 389.26 968.73 393.81C967.59 398.36 970.34 402.97 974.88 404.14C977.77 404.87 984.99 406.67 996.54 409.56Z" id="b1FmVcL7SS"></path><path d="M217.07 482.03C217.07 483.58 217.07 491.31 217.07 505.23C202.95 501.7 195.11 499.74 193.54 499.35C190.57 498.59 187.43 499.47 185.29 501.67C183.15 503.86 182.36 507.03 183.21 509.98C184.06 512.92 186.42 515.18 189.39 515.91C190.84 516.27 198.06 518.07 211.06 521.33C200.31 535.66 194.33 543.63 193.14 545.22C191.31 547.66 190.92 550.89 192.12 553.69C193.32 556.49 195.92 558.45 198.95 558.81C201.97 559.18 204.96 557.9 206.79 555.46C208.05 553.79 214.32 545.43 225.6 530.38C236.86 545.4 243.12 553.75 244.37 555.42C246.2 557.85 249.19 559.13 252.22 558.77C255.25 558.4 257.85 556.45 259.05 553.65C260.24 550.84 259.86 547.61 258.03 545.18C256.83 543.58 250.86 535.62 240.11 521.28C253.1 518.03 260.32 516.23 261.76 515.86C264.78 515.18 267.2 512.92 268.08 509.95C268.95 506.98 268.15 503.77 265.98 501.56C263.81 499.35 260.62 498.49 257.63 499.31C256.07 499.7 248.23 501.68 234.13 505.23C234.13 491.31 234.13 483.58 234.13 482.03C234.13 477.32 230.31 473.5 225.6 473.5C220.89 473.5 217.07 477.32 217.07 482.03Z" id="a19iafs0vf"></path><path d="M848.09 378.53C895.78 422.57 946.38 463.35 999.55 500.58C1002.84 502.81 1004.16 507 1002.73 510.71C1001.31 514.42 997.52 516.65 993.59 516.1C898.8 503.73 796.44 435.93 776.72 422.36C616.65 460.65 544.57 348.5 530.25 301.66C523.57 281.33 523.89 259.35 531.17 239.23C530.26 234.01 522.97 192.28 522.06 187.06C521.53 184.02 522.68 180.93 525.08 178.98C527.48 177.03 530.74 176.53 533.61 177.67C538.44 179.58 577.07 194.9 581.9 196.81C602.93 190.99 625.47 195.36 642.8 208.62C650.14 193.44 655.12 177.24 657.55 160.56C667.98 98.94 696.78 90.14 730.14 79.94C781.07 62.55 830.66 41.49 878.54 16.92C881 15.54 884 15.46 886.53 16.73C889.06 17.99 890.8 20.43 891.17 23.24C891.47 25.49 893.13 45.7 864.53 72.8C859.42 94.29 847.76 113.66 831.17 128.23C830.99 151.02 819.77 172.31 801.06 185.33C809.96 187.07 819.93 189.26 830.33 191.55C876.49 201.8 939.74 215.8 981.88 202.92C984.89 202 988.16 202.81 990.39 205.03C992.62 207.25 993.45 210.52 992.55 213.53C991.91 215.64 981.5 247.62 933.41 262.33C929.54 263.51 925.36 264.55 920.99 265.48C909.83 282.1 893.18 294.26 873.95 299.83C868.93 301.32 863.8 302.43 858.61 303.16C855.3 306.82 851.57 310.08 847.51 312.88C939.73 333.31 1042.51 314.49 1043.65 314.28C1047.82 313.49 1051.93 315.88 1053.31 319.88C1054.69 323.89 1052.92 328.3 1049.15 330.24C982.37 364.7 888.55 375.4 848.09 378.53ZM541.49 199.18C543.45 210.36 544.53 216.57 544.75 217.81C549.09 213.34 554 209.46 559.36 206.27C556.98 205.33 551.02 202.96 541.49 199.18ZM749.42 172.19C744.92 173.57 740.15 171.03 738.77 166.53C737.39 162.02 739.93 157.25 744.43 155.87C770.97 148.61 795.67 135.79 816.89 118.27C825.12 111.17 832.21 102.84 837.89 93.57C809.68 111.38 779.55 125.92 748.06 136.92C743.63 138.55 738.72 136.28 737.09 131.85C735.46 127.42 737.73 122.51 742.16 120.88C791.73 102.64 828.3 82.89 850.97 62.15C857.87 56.1 863.84 49.06 868.68 41.26C825.31 62.27 780.71 80.64 735.13 96.26C702.65 106.19 683.05 112.18 674.46 163.4C671.59 183.42 665.26 202.79 655.75 220.64C665.4 231 672.69 243.32 677.13 256.75C678.57 260.77 681.26 264.22 684.8 266.59C690.33 263.73 695.54 260.28 700.33 256.31C713.07 245.24 723.93 232.17 732.47 217.62C734.23 214.88 735.99 212.19 737.78 209.56C735 208.64 732.9 206.35 732.23 203.5C731.73 201.29 732.14 198.96 733.36 197.05C734.59 195.13 736.52 193.78 738.74 193.3C746.13 191.7 753.42 189.67 760.57 187.23C760.57 187.23 760.62 187.21 760.63 187.21C762.99 186.05 765.47 185.11 768.02 184.42C773.4 182.26 778.59 179.65 783.54 176.63C796.69 169.52 806.73 157.79 811.72 143.7C792.46 156.19 771.47 165.8 749.42 172.19ZM895.45 269.03C866.17 270.56 836.82 268.09 808.21 261.68C803.59 260.73 800.62 256.22 801.57 251.61C802.52 246.99 807.03 244.02 811.64 244.96C908.17 264.81 949.47 241.02 966.04 223.64C922.13 229.38 867.84 217.36 826.61 208.27C813.02 205.28 800.17 202.42 789.83 200.69C766.31 196.73 759.79 206.82 746.8 226.91C737.31 242.93 725.29 257.31 711.2 269.48C691.48 286.71 665.35 294.68 639.37 291.39C636.35 290.99 633.77 289.01 632.61 286.19C631.44 283.37 631.87 280.15 633.72 277.73C635.58 275.31 638.58 274.07 641.61 274.47C650.11 275.57 658.74 275.15 667.1 273.21C664.26 269.84 662.13 265.94 660.81 261.74C656.49 248.86 649.07 237.24 639.19 227.9C626 215.21 607.57 209.54 589.52 212.63C571.48 215.72 555.98 227.2 547.76 243.55C541.11 260.56 540.69 279.38 546.57 296.67C547.02 298.14 594.75 437.76 755.93 409.18C736.35 398.2 715.42 389.82 693.67 384.26C632.83 369.11 611.01 355.3 599.27 322.56C590.76 303.94 591.71 282.35 601.82 264.55C603.36 260.11 602.53 255.19 599.62 251.5C596.63 247.94 591.92 247.11 585.55 249.06C581.05 250.44 576.28 247.9 574.9 243.4C573.52 238.89 576.06 234.12 580.56 232.74C591.89 228.32 604.77 231.49 612.75 240.66C620.08 249.64 621.69 262 616.89 272.56C609.81 284.45 608.62 298.95 613.67 311.84C617.06 322.93 623.05 334.74 634.05 338.63C640.59 340.57 647.58 340.44 654.04 338.24C651.79 336.37 649.64 334.37 647.62 332.27C644.37 328.85 644.51 323.45 647.92 320.2C651.34 316.95 656.75 317.09 659.99 320.51C664.36 325.26 669.59 329.16 675.39 331.98C682.35 335.13 690.21 335.7 697.55 333.58C691.94 330.5 686.55 327.05 681.4 323.26C677.59 320.48 676.76 315.14 679.54 311.34C682.32 307.53 687.66 306.7 691.46 309.47C700.26 316.12 709.99 321.41 720.35 325.17C735.66 331.17 752.86 329.95 767.17 321.85C755.03 318.67 743.19 314.43 731.8 309.17C729.02 307.91 727.13 305.26 726.83 302.22C726.54 299.18 727.89 296.22 730.37 294.45C732.86 292.67 736.1 292.36 738.87 293.62C754.33 301.06 770.83 306.12 787.8 308.63C798.52 310.22 809.46 309.67 819.97 307.01C819.99 307 820.19 306.94 820.21 306.94C822.79 306.23 825.31 305.35 827.77 304.3C805.69 302.7 783.9 298.36 762.9 291.38C758.44 289.93 755.98 285.16 757.4 280.69C758.82 276.22 763.58 273.73 768.06 275.12C795.31 284.9 824.29 288.88 853.17 286.8C868.75 285.36 883.51 279.16 895.45 269.03ZM790 325.96C771.19 344.32 743.74 350.69 718.76 342.5C714.06 345.49 708.99 347.87 703.7 349.61C693.58 352.76 682.72 352.56 672.73 349.03C668.52 351.21 664.12 353.02 659.59 354.43C658.6 354.73 657.5 354.93 656.46 355.2C669.96 360.25 683.78 364.44 697.82 367.73C728.4 375.43 757.38 388.46 783.43 406.22C784.42 406.92 869.95 467.21 957.39 491.25C909.91 456.24 864.73 418.19 822.16 377.34C819.73 374.96 818.95 371.35 820.18 368.17C821.41 364.99 824.41 362.85 827.82 362.72C879.25 360.02 930.26 351.92 980.01 338.57C927 342.52 873.71 337.58 822.33 323.96C811.75 326.45 800.82 327.11 790 325.96Z" id="i1NBKztx2"></path><path d="M460 76.92C449.27 91.23 443.31 99.18 442.12 100.77C439.29 104.54 440.05 109.89 443.82 112.72C447.59 115.54 452.94 114.78 455.77 111.01C457.02 109.34 463.28 101 474.54 85.98C485.81 101 492.06 109.34 493.32 111.01C496.14 114.78 501.49 115.54 505.26 112.72C509.03 109.89 509.8 104.54 506.97 100.77C505.77 99.18 499.8 91.23 489.05 76.92C502.05 73.67 509.27 71.86 510.72 71.5C513.69 70.78 516.05 68.51 516.9 65.57C517.75 62.63 516.95 59.46 514.82 57.26C512.68 55.06 509.53 54.18 506.57 54.95C505 55.34 497.17 57.3 483.08 60.83C483.08 46.9 483.08 39.17 483.08 37.62C483.08 32.91 479.26 29.09 474.54 29.09C469.83 29.09 466.01 32.91 466.01 37.62C466.01 39.17 466.01 46.9 466.01 60.83C451.89 57.3 444.05 55.34 442.48 54.95C437.93 53.84 433.33 56.62 432.19 61.16C431.05 65.71 433.8 70.33 438.34 71.5C441.22 72.22 448.45 74.03 460 76.92Z" id="b2ODVcPuV"></path><path d="M543.45 391.04C542.72 392.4 539.09 399.23 532.56 411.52C521.75 401.78 515.74 396.37 514.54 395.29C512.28 393.22 509.09 392.52 506.17 393.45C503.26 394.39 501.07 396.82 500.43 399.82C499.8 402.81 500.82 405.92 503.11 407.96C504.22 408.95 509.74 413.94 519.7 422.91C503.47 430.52 494.46 434.75 492.66 435.59C489.9 436.89 488.04 439.56 487.78 442.6C487.52 445.63 488.9 448.58 491.4 450.32C493.9 452.06 497.14 452.34 499.9 451.05C501.8 450.16 511.26 445.72 528.28 437.73C531.18 456.28 532.78 466.59 533.11 468.65C533.58 471.66 535.62 474.2 538.46 475.3C541.3 476.39 544.52 475.89 546.89 473.98C549.27 472.07 550.44 469.03 549.97 466.02C549.66 464.05 548.13 454.22 545.36 436.51C558.36 439.74 565.59 441.53 567.03 441.89C570.02 442.71 573.21 441.85 575.38 439.64C577.54 437.43 578.34 434.22 577.47 431.25C576.59 428.28 574.18 426.02 571.16 425.34C569.59 424.95 561.74 423.02 547.62 419.53C554.16 407.24 557.79 400.41 558.52 399.05C560.73 394.89 559.15 389.72 554.99 387.51C550.83 385.29 545.66 386.87 543.45 391.04Z" id="abLpt2JZre"></path></defs><g><g><g><use xlink:href="#c16RYq77An" opacity="1" fill="rgb(110, 110, 110)" fill-opacity="1"></use><g><use xlink:href="#c16RYq77An" opacity="1" fill-opacity="0" stroke="rgb(110, 110, 110)" stroke-width="1" stroke-opacity="0"></use></g></g><g><use xlink:href="#b1FmVcL7SS" opacity="1" fill="rgb(110, 110, 110)" fill-opacity="1"></use><g><use xlink:href="#b1FmVcL7SS" opacity="1" fill-opacity="0" stroke="rgb(110, 110, 110)" stroke-width="1" stroke-opacity="0"></use></g></g><g><use xlink:href="#a19iafs0vf" opacity="1" fill="rgb(110, 110, 110)" fill-opacity="1"></use><g><use xlink:href="#a19iafs0vf" opacity="1" fill-opacity="0" stroke="rgb(110, 110, 110)" stroke-width="1" stroke-opacity="0"></use></g></g><g><use xlink:href="#i1NBKztx2" opacity="1" fill="rgb(110, 110, 110)" fill-opacity="1"></use><use xlink:href="#i1NBKztx2" opacity="1" fill="rgb(110, 110, 110)" fill-opacity="1"></use><g><use xlink:href="#i1NBKztx2" opacity="1" fill-opacity="0" stroke="rgb(110, 110, 110)" stroke-width="1" stroke-opacity="0"></use></g></g><g><use xlink:href="#b2ODVcPuV" opacity="1" fill="rgb(110, 110, 110)" fill-opacity="1"></use><g><use xlink:href="#b2ODVcPuV" opacity="1" fill-opacity="0" stroke="rgb(110, 110, 110)" stroke-width="1" stroke-opacity="0"></use></g></g><g><use xlink:href="#abLpt2JZre" opacity="1" fill="rgb(110, 110, 110)" fill-opacity="1"></use><g><use xlink:href="#abLpt2JZre" opacity="1" fill-opacity="0" stroke="rgb(110, 110, 110)" stroke-width="1" stroke-opacity="0"></use></g></g></g></g></svg>