<?xml version="1.0" encoding="UTF-8" standalone="no"?>
<!DOCTYPE svg PUBLIC "-//W3C//DTD SVG 1.1//EN" "http://www.w3.org/Graphics/SVG/1.1/DTD/svg11.dtd">
<svg version="1.1" xmlns="http://www.w3.org/2000/svg" xmlns:xlink="http://www.w3.org/1999/xlink" preserveAspectRatio="xMidYMid meet" viewBox="0 0 1133.858 566.929" width="1133.86" height="566.93"><defs><path d="M210.03 378.52C162.34 422.56 111.73 463.34 58.56 500.58C55.27 502.8 53.95 507 55.37 510.71C56.79 514.42 60.59 516.65 64.52 516.1C159.32 503.73 261.68 435.93 281.41 422.35C441.49 460.64 513.57 348.49 527.89 301.64C534.58 281.31 534.25 259.33 526.97 239.21C527.88 233.99 535.18 192.26 536.09 187.04C536.62 184 535.46 180.9 533.07 178.95C530.67 177 527.4 176.5 524.53 177.64C519.7 179.56 481.07 194.87 476.24 196.79C455.21 190.96 432.66 195.33 415.33 208.6C407.99 193.42 403.02 177.21 400.58 160.53C390.15 98.91 361.35 90.11 327.99 79.91C277.06 62.52 227.46 41.46 179.58 16.88C177.11 15.5 174.12 15.42 171.58 16.69C169.05 17.96 167.31 20.39 166.94 23.2C166.64 25.46 164.98 45.66 193.59 72.77C198.69 94.26 210.35 113.63 226.95 128.2C227.12 151 238.35 172.29 257.06 185.31C248.16 187.05 238.19 189.24 227.78 191.53C181.62 201.77 118.37 215.78 76.23 202.9C73.22 201.98 69.94 202.79 67.71 205.01C65.48 207.23 64.65 210.5 65.56 213.51C66.2 215.62 76.6 247.6 124.7 262.31C128.57 263.49 132.75 264.53 137.12 265.46C148.28 282.08 164.94 294.24 184.17 299.81C189.19 301.3 194.32 302.41 199.5 303.15C202.82 306.8 206.54 310.06 210.6 312.87C118.37 333.29 15.59 314.48 14.45 314.26C10.28 313.47 6.17 315.86 4.79 319.87C3.41 323.87 5.18 328.29 8.95 330.23C75.73 364.69 169.56 375.39 210.03 378.52ZM516.65 199.16C514.7 210.34 513.61 216.55 513.39 217.79C509.05 213.31 504.14 209.43 498.78 206.25C501.16 205.3 507.12 202.94 516.65 199.16ZM308.7 172.17C313.21 173.54 317.98 171.01 319.36 166.5C320.74 161.99 318.2 157.22 313.69 155.85C287.15 148.58 262.45 135.76 241.23 118.24C233 111.14 225.91 102.81 220.23 93.54C248.44 111.35 278.57 125.89 310.07 136.89C314.49 138.52 319.41 136.25 321.04 131.82C322.67 127.39 320.4 122.48 315.97 120.85C266.39 102.6 229.82 82.86 207.15 62.11C200.24 56.06 194.27 49.02 189.44 41.22C232.81 62.23 277.41 80.6 323 96.23C355.48 106.16 375.08 112.15 383.67 163.37C386.54 183.39 392.87 202.76 402.38 220.62C392.73 230.97 385.44 243.29 381 256.73C379.56 260.75 376.87 264.2 373.33 266.58C367.8 263.71 362.59 260.26 357.8 256.29C345.06 245.22 334.2 232.15 325.65 217.59C323.89 214.86 322.14 212.16 320.34 209.54C323.12 208.62 325.23 206.33 325.9 203.48C326.4 201.26 325.99 198.94 324.76 197.02C323.54 195.11 321.6 193.76 319.38 193.28C311.99 191.68 304.71 189.65 297.56 187.2C297.55 187.2 297.5 187.19 297.5 187.19C295.13 186.02 292.65 185.09 290.11 184.4C284.72 182.23 279.53 179.63 274.58 176.61C261.43 169.49 251.39 157.76 246.4 143.67C265.66 156.17 286.65 165.77 308.7 172.17ZM162.66 269.01C191.95 270.54 221.3 268.07 249.91 261.66C254.53 260.72 257.5 256.2 256.55 251.59C255.61 246.97 251.09 244 246.48 244.94C149.94 264.79 108.64 241 92.07 223.61C135.98 229.36 190.28 217.34 231.51 208.24C245.1 205.26 257.95 202.4 268.3 200.66C291.81 196.71 298.34 206.8 311.33 226.88C320.81 242.91 332.84 257.29 346.93 269.46C366.65 286.69 392.79 294.66 418.76 291.37C421.78 290.97 424.36 288.99 425.53 286.17C426.7 283.36 426.27 280.13 424.41 277.71C422.56 275.29 419.55 274.05 416.53 274.45C408.02 275.55 399.39 275.13 391.03 273.19C393.87 269.82 396.01 265.93 397.32 261.72C401.64 248.84 409.07 237.22 418.94 227.88C432.13 215.19 450.57 209.52 468.62 212.6C486.66 215.69 502.17 227.17 510.38 243.53C517.04 260.55 517.46 279.36 511.57 296.65C511.12 298.13 463.39 437.76 302.19 409.18C321.78 398.19 342.71 389.81 364.46 384.25C425.31 369.1 447.13 355.29 458.87 322.55C467.38 303.92 466.43 282.34 456.32 264.53C454.78 260.09 455.61 255.17 458.52 251.49C461.51 247.92 466.22 247.09 472.59 249.04C477.09 250.42 481.87 247.88 483.24 243.38C484.62 238.87 482.08 234.1 477.58 232.72C466.25 228.3 453.37 231.47 445.39 240.64C438.06 249.62 436.45 261.98 441.25 272.54C448.33 284.44 449.52 298.94 444.47 311.83C441.08 322.92 435.09 334.72 424.08 338.61C417.54 340.56 410.56 340.42 404.1 338.22C406.35 336.35 408.49 334.36 410.52 332.25C413.77 328.84 413.63 323.43 410.21 320.18C406.79 316.94 401.39 317.07 398.14 320.49C393.77 325.25 388.55 329.14 382.74 331.97C375.78 335.12 367.92 335.68 360.58 333.57C366.19 330.48 371.58 327.03 376.73 323.24C380.54 320.47 381.37 315.13 378.59 311.32C375.81 307.51 370.47 306.68 366.67 309.46C357.87 316.1 348.14 321.39 337.78 325.16C322.47 331.16 305.27 329.94 290.95 321.84C303.1 318.65 314.93 314.41 326.33 309.16C329.11 307.89 331 305.24 331.29 302.2C331.59 299.17 330.24 296.2 327.75 294.43C325.27 292.66 322.03 292.34 319.25 293.61C303.79 301.04 287.3 306.1 270.32 308.61C259.6 310.2 248.66 309.65 238.15 306.99C238.13 306.99 237.93 306.93 237.91 306.92C235.33 306.21 232.81 305.33 230.35 304.29C252.43 302.69 274.22 298.35 295.23 291.37C299.69 289.92 302.14 285.14 300.72 280.67C299.31 276.2 294.54 273.71 290.06 275.1C262.82 284.88 233.83 288.86 204.95 286.79C189.36 285.35 174.6 279.14 162.66 269.01ZM268.12 325.95C286.93 344.31 314.39 350.68 339.37 342.49C344.07 345.48 349.13 347.86 354.43 349.59C364.55 352.75 375.41 352.55 385.4 349.02C389.61 351.2 394.01 353.01 398.54 354.41C399.54 354.72 400.63 354.92 401.68 355.19C388.17 360.24 374.35 364.43 360.31 367.72C329.73 375.42 300.75 388.45 274.69 406.21C273.71 406.91 188.16 467.2 100.71 491.25C148.21 456.24 193.38 418.18 235.96 377.33C238.39 374.95 239.17 371.34 237.94 368.16C236.71 364.98 233.71 362.84 230.3 362.71C178.86 360 127.85 351.91 78.1 338.56C131.11 342.5 184.41 337.56 235.79 323.95C246.37 326.43 257.3 327.1 268.12 325.95Z" id="amSieT654"></path><path d="M933.8 378.49C981.49 422.53 1032.09 463.31 1085.26 500.54C1088.55 502.77 1089.87 506.97 1088.45 510.67C1087.02 514.38 1083.23 516.61 1079.3 516.06C984.51 503.7 882.16 435.89 862.43 422.32C702.36 460.61 630.29 348.46 615.97 301.62C609.28 281.29 609.61 259.31 616.89 239.19C615.97 233.98 608.68 192.24 607.77 187.02C607.24 183.98 608.4 180.89 610.79 178.94C613.19 176.99 616.45 176.49 619.33 177.63C624.15 179.54 662.79 194.86 667.61 196.77C688.64 190.95 711.19 195.32 728.51 208.58C735.86 193.41 740.83 177.2 743.26 160.52C753.69 98.91 782.5 90.1 815.85 79.9C866.78 62.52 916.38 41.45 964.25 16.88C966.72 15.5 969.71 15.42 972.24 16.69C974.78 17.96 976.52 20.39 976.89 23.2C977.18 25.46 978.85 45.66 950.24 72.77C945.13 94.25 933.48 113.62 916.88 128.19C916.71 150.99 905.48 172.28 886.77 185.29C895.67 187.03 905.64 189.22 916.05 191.51C962.2 201.76 1025.46 215.76 1067.59 202.88C1070.6 201.96 1073.87 202.77 1076.11 204.99C1078.34 207.21 1079.17 210.48 1078.26 213.5C1077.62 215.6 1067.21 247.58 1019.12 262.29C1015.25 263.47 1011.07 264.51 1006.7 265.44C995.54 282.06 978.89 294.22 959.66 299.79C954.64 301.28 949.51 302.39 944.33 303.12C941.01 306.78 937.29 310.04 933.23 312.84C1025.45 333.27 1128.23 314.45 1129.37 314.24C1133.53 313.45 1137.64 315.84 1139.02 319.84C1140.4 323.85 1138.63 328.26 1134.87 330.21C1068.09 364.67 974.26 375.36 933.8 378.49ZM627.21 199.14C629.16 210.32 630.25 216.53 630.47 217.77C634.8 213.3 639.72 209.42 645.08 206.23C642.69 205.29 636.74 202.92 627.21 199.14ZM835.14 172.15C830.63 173.53 825.86 171 824.48 166.49C823.1 161.98 825.64 157.21 830.15 155.83C856.69 148.57 881.38 135.75 902.6 118.23C910.84 111.13 917.92 102.8 923.6 93.53C895.4 111.34 865.26 125.88 833.77 136.88C829.35 138.51 824.43 136.24 822.8 131.81C821.17 127.38 823.44 122.47 827.87 120.84C877.44 102.6 914.01 82.85 936.68 62.11C943.59 56.06 949.56 49.02 954.39 41.22C911.02 62.23 866.43 80.6 820.84 96.22C788.37 106.15 768.77 112.14 760.18 163.36C757.31 183.38 750.98 202.75 741.47 220.6C751.11 230.96 758.4 243.28 762.84 256.71C764.28 260.73 766.97 264.18 770.52 266.56C776.05 263.69 781.25 260.24 786.05 256.27C798.79 245.2 809.64 232.13 818.19 217.58C819.95 214.84 821.7 212.15 823.5 209.52C820.72 208.6 818.61 206.31 817.94 203.46C817.45 201.25 817.85 198.92 819.08 197.01C820.3 195.09 822.24 193.75 824.46 193.26C831.84 191.66 839.13 189.63 846.28 187.19C846.29 187.19 846.33 187.17 846.34 187.17C848.71 186.01 851.18 185.07 853.73 184.39C859.11 182.22 864.31 179.61 869.26 176.6C882.4 169.48 892.45 157.75 897.44 143.66C878.18 156.16 857.19 165.76 835.14 172.15ZM981.16 268.99C951.88 270.52 922.53 268.05 893.92 261.64C889.3 260.7 886.33 256.18 887.28 251.57C888.23 246.95 892.74 243.98 897.36 244.93C993.88 264.78 1035.18 240.99 1051.75 223.6C1007.84 229.34 953.55 217.32 912.33 208.23C898.73 205.25 885.89 202.38 875.54 200.65C852.03 196.69 845.5 206.78 832.51 226.87C823.03 242.89 811 257.27 796.91 269.44C777.2 286.67 751.06 294.64 725.09 291.35C722.07 290.95 719.49 288.97 718.32 286.15C717.15 283.33 717.58 280.11 719.44 277.69C721.29 275.27 724.3 274.03 727.32 274.43C735.83 275.53 744.46 275.11 752.81 273.17C749.98 269.8 747.84 265.91 746.52 261.7C742.2 248.82 734.78 237.2 724.91 227.87C711.72 215.17 693.28 209.5 675.24 212.59C657.19 215.68 641.69 227.16 633.47 243.52C626.82 260.53 626.4 279.34 632.29 296.63C632.74 298.11 680.46 437.72 841.65 409.15C822.07 398.16 801.13 389.78 779.38 384.22C718.54 369.08 696.72 355.26 684.99 322.52C676.47 303.9 677.42 282.31 687.54 264.51C689.08 260.07 688.25 255.15 685.33 251.47C682.34 247.9 677.63 247.08 671.27 249.02C666.76 250.4 661.99 247.86 660.61 243.36C659.23 238.85 661.77 234.08 666.28 232.7C677.6 228.28 690.48 231.46 698.46 240.63C705.8 249.6 707.4 261.96 702.6 272.52C695.52 284.41 694.33 298.91 699.38 311.81C702.77 322.89 708.76 334.7 719.77 338.59C726.31 340.53 733.29 340.4 739.75 338.2C737.5 336.33 735.36 334.34 733.33 332.23C730.08 328.81 730.22 323.41 733.64 320.16C737.06 316.91 742.46 317.05 745.71 320.47C750.08 325.22 755.3 329.12 761.11 331.94C768.07 335.09 775.92 335.66 783.26 333.54C777.66 330.46 772.27 327.01 767.11 323.22C763.31 320.44 762.48 315.1 765.25 311.3C768.03 307.49 773.37 306.66 777.18 309.44C785.97 316.08 795.71 321.37 806.07 325.13C821.38 331.13 838.57 329.91 852.88 321.81C840.74 318.63 828.91 314.39 817.51 309.13C814.73 307.87 812.84 305.22 812.55 302.18C812.25 299.14 813.6 296.18 816.09 294.41C818.57 292.63 821.81 292.32 824.59 293.58C840.05 301.02 856.54 306.08 873.51 308.59C884.24 310.18 895.17 309.63 905.68 306.97C905.71 306.96 905.9 306.9 905.93 306.9C908.5 306.19 911.03 305.31 913.48 304.27C891.41 302.67 869.61 298.32 848.61 291.34C844.15 289.89 841.7 285.12 843.11 280.65C844.53 276.18 849.29 273.69 853.77 275.08C881.02 284.86 910.01 288.84 938.88 286.77C954.47 285.33 969.23 279.12 981.16 268.99ZM875.71 325.92C856.91 344.28 829.45 350.66 804.48 342.46C799.77 345.45 794.71 347.84 789.41 349.57C779.3 352.72 768.43 352.52 758.44 348.99C754.23 351.17 749.84 352.98 745.31 354.39C744.31 354.69 743.21 354.89 742.17 355.16C755.68 360.21 769.49 364.4 783.53 367.69C814.11 375.39 843.09 388.42 869.15 406.18C870.13 406.88 955.67 467.17 1043.11 491.21C995.62 456.2 950.45 418.15 907.88 377.31C905.44 374.92 904.66 371.31 905.89 368.13C907.12 364.95 910.13 362.81 913.53 362.68C964.97 359.98 1015.98 351.88 1065.72 338.53C1012.72 342.48 959.42 337.54 908.05 323.92C897.47 326.41 886.53 327.07 875.71 325.92Z" id="b10lQrSj39"></path></defs><g><g><g><use xlink:href="#amSieT654" opacity="1" fill="rgb(110, 110, 110)" fill-opacity="1"></use><g><use xlink:href="#amSieT654" opacity="1" fill-opacity="0" stroke="rgb(110, 110, 110)" stroke-width="1" stroke-opacity="0"></use></g></g><g><use xlink:href="#b10lQrSj39" opacity="1" fill="rgb(110, 110, 110)" fill-opacity="1"></use><use xlink:href="#b10lQrSj39" opacity="1" fill="rgb(110, 110, 110)" fill-opacity="1"></use><g><use xlink:href="#b10lQrSj39" opacity="1" fill-opacity="0" stroke="rgb(110, 110, 110)" stroke-width="1" stroke-opacity="0"></use></g></g></g></g></svg>