<svg height="480pt" viewBox="0 0 480 480" width="480pt" xmlns="http://www.w3.org/2000/svg" fill="rgb(40, 40, 40)"><path d="m171.59375 406.785156 8.882812-13.308594 24 16.007813-8.878906 13.3125zm0 0"/><path d="m193.34375 372.4375 13.3125-8.878906 16 24.003906-13.3125 8.875zm0 0"/><path d="m275.5625 409.34375 24-16.003906 8.875 13.3125-24 16.003906zm0 0"/><path d="m257.402344 387.691406 16.011718-24 13.3125 8.878906-16.011718 24.003907zm0 0"/><path d="m0 0v56h144v16h48v120c.039062.652344.117188 1.300781.238281 1.945312l8 32c.894531 3.558594 4.09375 6.054688 7.761719 6.054688h8v24c0 4.417969 3.582031 8 8 8h8v168h-184v48h384v-48h-184v-168h8c4.417969 0 8-3.582031 8-8v-24h8c3.667969 0 6.867188-2.496094 7.761719-6.054688l8-32c.121093-.644531.199219-1.292968.238281-1.945312v-120h48v-16h144v-56zm144 40h-128v-24h128zm272 408v16h-352v-16zm-168-200h-16v-16h16zm17.753906-32h-51.507812l-4-16h59.507812zm6.246094-32h-64v-16h48v-16h-48v-16h24v-16h-24v-48h64zm48-128h-160v-40h160zm144-16h-128v-24h128zm0 0"/></svg>