<?xml version="1.0" encoding="utf-8"?>
<!-- Generator: Adobe Illustrator 22.0.1, SVG Export Plug-In . SVG Version: 6.00 Build 0)  -->
<svg version="1.1" id="Warstwa_1" xmlns="http://www.w3.org/2000/svg" xmlns:xlink="http://www.w3.org/1999/xlink" x="0px" y="0px"
	 viewBox="0 0 260.7 87.3" style="enable-background:new 0 0 260.7 87.3;" xml:space="preserve">
<style type="text/css">
	.st0{fill:#E4091E;}
</style>
<path d="M95.2,61.3c-0.2,0-0.4-0.1-0.6-0.1c-0.6,0-1.3,0-1.9-0.1c-0.6-0.1-1.2-0.2-1.8-0.3c-0.9-0.3-1.8-0.8-2.4-1.5
	c-0.1-0.1-0.2-0.2-0.3-0.3c-0.3,0.2-0.7,0.3-1,0.5c-0.8,0.4-1.5,0.8-2.3,1.2c-0.8,0.4-1.6,0.6-2.5,0.5c-1.3-0.1-2.4-0.5-3.4-1.4
	c-0.1-0.1-0.2-0.2-0.3-0.3c-0.2,0.1-0.3,0.1-0.5,0.2c-0.8,0.4-1.7,0.7-2.5,1.1c-1.2,0.5-2.5,0.5-3.8,0.3c-1.1-0.2-2.2-0.4-3.3-0.6
	c-0.7-0.1-1.3-0.1-2,0.2c-0.6,0.3-1.3,0.4-2.1,0.5c-1.4,0.2-2.6-0.1-3.8-0.8c-0.6-0.3-1.1-0.7-1.5-1.1c-0.1-0.1-0.3-0.2-0.4-0.4
	c-0.2,0.2-0.4,0.3-0.6,0.5c-1,0.8-2.1,1.4-3.4,1.7c-1.8,0.4-3.5,0.1-5.1-0.7C47.9,59.5,47,58,47,56c0-0.4,0.1-0.9,0.1-1.3
	c0.2-1.2,0.6-2.4,1.1-3.5c1.5-3.3,3-6.5,4.6-9.8c0.4-0.8,0.8-1.5,1.2-2.3c1-1.9,2.4-3.6,4-4.9c0.4-0.3,0.8-0.6,1.2-0.9
	c1.7-1,3.5-1.1,5.3-0.4c0.8,0.3,1.4,0.7,2.1,1.1c0.2,0.1,0.3,0.2,0.5,0.4c0.3-0.1,0.5-0.4,0.7-0.6c0.5-0.5,1.1-0.6,1.8-0.4
	c0.4,0.1,0.8,0.4,0.9,0.9c0.2,0.6,0.2,1.1,0,1.7c-0.4,0.9-0.7,1.7-1.1,2.6c-2.1,4.6-4.2,9.3-6.3,13.9c-0.3,0.7-0.6,1.5-0.9,2.3
	c-0.1,0.3-0.2,0.6-0.2,0.9c-0.1,0.8,0.2,1.2,1,1.4c0.9,0.2,1.8,0.2,2.7-0.2c0.3-0.1,0.5-0.3,0.7-0.5c1.8-2,3.5-4.2,4.7-6.7
	c2.2-4.5,4.2-9,6.3-13.6c0.6-1.3,1.2-2.7,1.8-4c0.3-0.7,0.7-1.4,1.1-2.1c0.1-0.1,0.2-0.3,0.3-0.4c0.3-0.4,0.6-0.6,1.1-0.6
	c0.2,0,0.5,0,0.7,0.1c0.8,0.1,1.4,0.7,1.4,1.6c0,0.4-0.1,0.8-0.3,1.2c-0.2,0.6-0.5,1.2-0.7,1.8c-0.5,1.7-0.4,3.4-0.1,5.1
	c0.2,1.1,0.6,2.2,1,3.2c0.5,1.2,0.8,2.5,1.1,3.8c0.6,3.2,0.1,6.3-1.5,9.2c-0.4,0.8-0.9,1.5-1.4,2.2c-0.1,0.1-0.2,0.3-0.3,0.4
	c0.2,0,0.2,0,0.3,0c1.6-0.2,3-0.9,4.1-2c0.7-0.7,1.2-1.5,1.6-2.3c0.3-0.5,0.5-1.1,0.8-1.7c2.4-5.3,4.8-10.6,7.3-15.8
	c0.3-0.6,0.6-1.1,0.9-1.7c0.2-0.4,0.5-0.7,0.9-1c0.6-0.5,1.2-0.5,1.8-0.1c0.2,0.1,0.3,0.2,0.4,0.3c0.5,0.5,0.7,1.1,0.5,1.7
	c-0.1,0.2-0.2,0.5-0.3,0.7c-1,2.2-2,4.4-3.1,6.6c-1.4,3.1-2.9,6.3-4.3,9.5c-0.4,0.8-0.7,1.6-1,2.4c-0.2,0.5-0.3,1-0.3,1.5
	c0,0.6,0.3,0.9,0.8,1.2c0.2,0.1,0.4,0.2,0.6,0.2c0.9,0.2,1.9,0.1,2.7-0.3c0.8-0.4,1.5-0.9,2-1.6c0.5-0.6,0.9-1.4,1.3-2.1
	c2-4.1,4-8.3,5.9-12.6c0.7-1.6,1.5-3.2,2.2-4.9c0.3-0.6,0.6-1.3,1-1.8c0.2-0.3,0.5-0.6,0.8-0.8c0.5-0.3,1.1-0.4,1.6,0
	c0.3,0.2,0.6,0.4,0.8,0.7c0.3,0.3,0.4,0.7,0.3,1.2c-0.1,0.3-0.2,0.7-0.3,1c-2.5,5.4-4.9,10.8-7.4,16.2c-1.9,4.1-3.7,8.2-5.6,12.2
	c-1.1,2.3-2.3,4.6-3.8,6.7c-1.3,1.8-2.9,3.5-4.7,4.8c-1.7,1.3-3.6,2.1-5.7,2.5c-1.7,0.3-3.4,0.2-5.2-0.1c-0.4-0.1-0.9-0.2-1.3-0.3
	c-2.5-0.9-4.2-2.6-5-5.2c-0.4-1.4-0.3-2.8,0.2-4.2c0.9-2.5,2.5-4.4,5-5.3c0.8-0.3,1.7-0.4,2.5-0.4c0.2,0,0.3,0,0.5,0.1
	c0.7,0.2,1.1,0.6,1.2,1.3c0,0.2,0,0.4,0,0.6c0,0.7-0.4,1.2-1,1.5c-0.3,0.1-0.5,0.2-0.8,0.2c-0.6,0.1-1.1,0.3-1.6,0.5
	c-1.6,0.8-2.4,2.2-2.3,4c0.1,1.5,0.9,2.5,2.2,3.1c0.5,0.2,1,0.4,1.6,0.5c2.5,0.4,4.9-0.1,7-1.6c1.7-1.2,3.2-2.7,4.4-4.3
	c1.6-2.1,2.7-4.5,3.8-6.9C95.2,61.6,95.2,61.5,95.2,61.3z M53.5,57.5c0.4,0,0.9-0.1,1.3-0.3c0.4-0.2,0.7-0.5,1-0.8
	c1.3-1.2,2.4-2.6,3.2-4.3c1.9-3.8,3.6-7.6,5.3-11.4c0.2-0.5,0.4-1.1,0.6-1.7c0.1-0.1,0.1-0.3,0.1-0.5c0.1-1.5-1.1-2.6-2.6-2.4
	c-1.3,0.2-2.4,0.9-3.3,1.9c-0.6,0.7-1.1,1.5-1.5,2.3c-1.1,2.4-2.3,4.8-3.4,7.2c-0.9,2-1.8,4-2.8,6c-0.2,0.5-0.4,0.9-0.5,1.4
	c-0.2,0.8,0.1,1.4,0.7,1.9C52.3,57.3,52.8,57.6,53.5,57.5z M79,42.1c-0.1,0.2-0.2,0.4-0.3,0.6c-1.2,2.6-2.5,5.1-3.7,7.7
	c-1,2-2,4.1-3,6.1c-0.1,0.2-0.3,0.4-0.2,0.6c1.9,0.6,4.1,0.1,5.6-1c1.5-1.1,2.6-2.5,3.2-4.2c0.7-2.1,0.7-4.3,0.2-6.5
	c-0.3-1.1-0.7-2.1-1.4-3.1C79.2,42.3,79.1,42.2,79,42.1z"/>
<path d="M175.3,59.7c-0.7,0.3-1.3,0.5-2,0.8c-1,0.4-2.1,0.8-3.2,1.1c-0.4,0.1-0.8,0.2-1.3,0.2c-1.5,0.1-2.9-0.4-4-1.4
	c-0.3-0.3-0.5-0.6-0.8-0.9c-0.2,0.1-0.3,0.2-0.5,0.4c-0.9,0.8-1.9,1.4-3.1,1.7c-1.9,0.5-3.8,0.3-5.6-0.5c-2.1-1-3-3.2-2.7-5.2
	c0.2-1.2,0.5-2.4,1-3.5c1.9-4.1,3.7-8.1,5.8-12.1c0.8-1.5,1.7-2.9,2.8-4.1c0.4-0.5,0.9-1,1.4-1.4c0.5-0.4,1-0.7,1.5-1
	c1.7-0.9,3.4-1,5.2-0.3c0.7,0.3,1.3,0.6,1.9,1c0.2,0.1,0.4,0.3,0.5,0.4c0.3,0,0.4-0.2,0.6-0.4c0.5-0.5,1.1-0.6,1.8-0.6
	c0.5,0.1,0.9,0.3,1.1,0.8c0.2,0.6,0.2,1.2,0,1.7c-0.2,0.4-0.4,0.7-0.5,1.1c-2.5,5.6-5.1,11.3-7.6,16.9c-0.1,0.3-0.3,0.7-0.4,1
	c-0.3,1,0,1.7,0.9,2.2c0.7,0.4,1.4,0.4,2.2,0.2c0.6-0.2,1.1-0.5,1.5-1c1.5-1.8,2.9-3.7,4-5.8c1.5-2.9,2.8-5.9,4.2-8.8
	c0.7-1.5,1.3-2.9,2-4.4c0.1-0.2,0.2-0.4,0.2-0.7c-0.1,0-0.3,0-0.4,0c-0.5,0-1,0-1.5,0c-0.5,0-0.9-0.2-1.2-0.6c-0.6-0.8-0.6-2,0-2.8
	c0.3-0.4,0.7-0.6,1.2-0.6c0.2,0,0.3,0,0.5,0c0.6,0,1.2,0,1.8,0c0.6,0,1-0.2,1.4-0.6c0.2-0.3,0.5-0.6,0.7-0.9
	c0.4-0.7,0.8-1.5,1.1-2.2c0.4-0.9,0.8-1.7,1.2-2.6c0.5-1.1,1.4-1.6,2.5-1.7c0.2,0,0.5,0,0.7,0.1c0.4,0.1,0.7,0.4,0.8,0.9
	c0.1,0.5,0,0.9-0.1,1.3c-0.2,0.6-0.5,1.3-0.8,1.9c-0.3,0.7-0.7,1.5-1,2.2c-0.1,0.3-0.2,0.5-0.3,0.8c0,0.1,0,0.3,0,0.4
	c0,0.1,0.1,0.2,0.3,0.3c0.2,0,0.3,0,0.5,0c1.7,0,3.4,0,5.1,0c0.5,0,0.8-0.2,1.1-0.5c0.3-0.5,0.6-0.9,0.8-1.4
	c0.6-1.1,1.1-2.3,1.6-3.4c0.2-0.5,0.4-0.9,0.7-1.3c0.2-0.4,0.5-0.7,0.8-1c0.8-0.7,2.1-0.5,2.7,0.3c0.2,0.3,0.3,0.7,0.3,1.1
	c-0.1,0.4-0.2,0.8-0.3,1.2c-0.6,1.5-1.2,3-1.8,4.4c-0.1,0.2-0.1,0.4-0.2,0.6c0.2,0,0.3,0.1,0.4,0.1c0.4,0,0.7,0,1.1,0
	c0.9,0,1.5,0.4,1.8,1.3c0.2,0.7,0.2,1.3-0.2,1.9c-0.3,0.5-0.8,0.8-1.4,0.8c-0.8,0-1.7,0-2.5,0c-0.5,0-0.9,0.2-1.3,0.5
	c-0.3,0.3-0.5,0.6-0.7,0.9c-0.2,0.4-0.4,0.8-0.6,1.2c-1.8,4.4-3.8,8.6-5.7,12.9c-0.2,0.5-0.5,1-0.6,1.6c-0.1,0.4-0.3,0.9-0.3,1.3
	c-0.2,1.6,0.8,2.7,2.4,2.6c0.9,0,1.7-0.4,2.4-0.9c0.4-0.3,0.8-0.7,1.1-1.1c1.1-1.4,1.9-2.9,2.7-4.5c1.1-2.3,2.2-4.6,3.3-6.8
	c0.7-1.4,1.3-2.7,2-4c0.8-1.6,1.8-3,3-4.3c0.5-0.6,1.1-1.1,1.6-1.7c0.9-0.9,2-1.3,3.2-1.5c1.3-0.2,2.6-0.1,3.8,0.3
	c0.5,0.1,0.9,0.4,1.4,0.6c1.4,0.9,2.2,2.2,2.3,3.9c0.1,0.9-0.1,1.8-0.3,2.6c-0.3,0.9-0.6,1.8-1,2.7c-1.8,3.8-3.5,7.6-5.4,11.3
	c-0.4,0.7-0.8,1.4-1.2,2.1c-0.5,0.9-1.2,1.8-1.9,2.6c-1.3,1.3-2.8,2.2-4.7,2.5c-1.3,0.2-2.6,0.1-3.9-0.3c-1-0.3-1.9-0.9-2.6-1.7
	c-0.1-0.1-0.3-0.3-0.4-0.5c-0.3,0.2-0.5,0.3-0.7,0.5c-1,0.7-2.1,1.3-3.2,1.7c-0.8,0.3-1.6,0.5-2.5,0.5c-1.3,0-2.4-0.3-3.4-1
	c-0.5-0.3-0.9-0.7-1.3-1.1c-0.2-0.1-0.3-0.3-0.5-0.5c-0.2,0.1-0.3,0.2-0.5,0.3c-0.8,0.6-1.6,1.1-2.5,1.5c-1,0.5-1.9,0.8-3,0.9
	c-1.8,0.2-3.3-0.4-4.6-1.6C175.8,60.1,175.6,59.9,175.3,59.7z M193.7,37.5c-0.2-0.3-0.4-0.4-0.7-0.4c-1.9,0-3.8,0-5.7,0
	c-0.3,0-0.5,0.1-0.6,0.3c-0.1,0.2-0.3,0.4-0.4,0.6c-0.2,0.5-0.5,0.9-0.7,1.4c-0.5,1.2-1,2.4-1.6,3.6c-1.5,3.3-2.9,6.5-4.4,9.8
	c-0.2,0.5-0.5,1.1-0.7,1.6c-0.2,0.5-0.3,1-0.2,1.5c0.1,1.1,0.9,2,2,2.1c0.3,0,0.7,0,1-0.1c0.9-0.2,1.6-0.6,2.2-1.2
	c1-1,1.9-2.2,2.5-3.5c2.2-4.5,4.4-9.1,6.5-13.6C193.2,39,193.5,38.3,193.7,37.5z M167.6,37.1c-0.6,0-1.2,0.2-1.7,0.6
	c-1.3,1.1-2.4,2.3-3.2,3.9c-1.1,2.1-2.1,4.3-3.1,6.4c-0.9,1.9-1.7,3.7-2.6,5.6c-0.3,0.6-0.6,1.3-0.7,2c-0.1,1,0.3,1.8,1.3,2.2
	c1,0.3,1.9,0.3,2.8-0.2c0.7-0.4,1.3-0.9,1.8-1.5c0.4-0.6,0.8-1.2,1.1-1.8c0.8-1.7,1.7-3.4,2.5-5.1c1.3-2.8,2.6-5.6,3.9-8.4
	c0.4-0.8,0.4-1.7,0.2-2.5c-0.1-0.4-0.3-0.7-0.7-0.8C168.7,37.2,168.2,37.1,167.6,37.1z M203.8,58c0.8-0.1,1.6-0.3,2.3-0.7
	c0.6-0.4,1.1-0.9,1.5-1.4c0.4-0.5,0.7-1,1-1.6c2.1-4.1,4-8.3,5.9-12.5c0.3-0.7,0.5-1.4,0.8-2.1c0.2-0.5,0.2-0.9,0.1-1.4
	c-0.2-0.8-0.8-1.4-1.7-1.5c-0.3,0-0.6,0-0.9,0.1c-0.7,0.2-1.3,0.5-1.9,0.9c-0.9,0.5-1.5,1.2-2,2.1c-1.1,2.1-2.2,4.3-3.2,6.4
	c-1.4,2.8-2.7,5.6-4,8.5c-0.2,0.3-0.3,0.7-0.4,1c-0.2,1,0.2,1.6,1.2,2C202.9,57.9,203.4,57.9,203.8,58z"/>
<path d="M24.3,30.9c-0.1-0.3-0.3-0.5-0.4-0.7c-0.8-1.4-1.4-2.9-1.8-4.4c-0.7-2.7-0.5-5.3,0.3-7.9c1-3.1,2.8-5.6,5.3-7.6
	c2.9-2.3,6.2-3.8,9.8-4.6c2-0.4,4-0.5,6-0.4c2.4,0.2,4.6,0.8,6.8,1.8c1.3,0.6,2.6,1.3,3.8,2.2c2.3,1.9,3.7,4.3,4.1,7.2
	c0.2,1.5,0.1,3-0.4,4.5c-1.5,4.6-4.7,7.4-9.4,8.4c-2,0.4-4,0.1-5.9-0.7c-0.5-0.2-1-0.4-1.4-0.7c-2-1.1-3.1-2.9-3.6-5.1
	c-0.3-1.3-0.2-2.5,0.3-3.8c0.2-0.7,0.6-1.2,1-1.8c0.4-0.5,1-0.9,1.7-1.2c0.3-0.1,0.7-0.1,1,0c1.1,0.4,1.3,0.8,1.1,1.8
	c-0.1,0.4-0.2,0.7-0.4,1.1c-0.1,0.3-0.3,0.6-0.5,0.9c-0.8,1.4-0.4,3,0.6,4c0.5,0.5,1.1,0.9,1.7,1.2c1.2,0.5,2.4,0.5,3.6,0.3
	c3.3-0.5,6-3,6.6-6.6c0.3-1.6,0-3-0.8-4.4c-0.6-1.1-1.5-1.9-2.4-2.6c-1.7-1.3-3.7-2.1-5.8-2.5c-4.6-0.8-9-0.1-13,2.3
	c-1.8,1-3.3,2.3-4.4,4c-1,1.4-1.7,3-1.9,4.7c-0.2,1.1-0.1,2.2,0,3.3c0,0.4,0.1,0.9,0.2,1.3c0.3,1.5,1.1,2.6,2.3,3.4
	c1.1,0.8,2.4,1.1,3.8,1.2c0.7,0,1.4,0.1,2,0.1c0.3,0,0.6,0.1,0.8,0.2c0.6,0.3,1,0.8,1.1,1.5c0.1,1.1-0.4,2-1.6,2.2
	c-0.2,0-0.5,0.1-0.7,0.1c-1,0-2,0.1-3,0.1c-2.8,0-5.5,0.5-8.2,1.4c-4.6,1.6-8.2,4.5-10.9,8.5c-1.1,1.6-1.8,3.3-2,5.3
	c-0.2,2,0,3.9,0.9,5.7c1.4,3,3.6,5.3,6.5,6.8c1.7,0.9,3.6,1.4,5.5,1.7c3.2,0.4,6.4-0.1,9.3-1.4c3.3-1.5,5.7-3.8,7.3-7
	c0.6-1.1,1-2.3,1.1-3.6c0.2-2-0.2-3.8-1.3-5.5c-1-1.6-2.5-2.5-4.4-3c-1.9-0.5-3.8-0.3-5.5,0.8c-0.9,0.5-1.6,1.3-2,2.2
	c-0.2,0.5-0.4,1.1-0.6,1.6c-0.2,0.4-0.3,0.9-0.6,1.2c-0.4,0.7-1,0.9-1.8,0.8c-0.7-0.1-1.1-0.5-1.3-1.2c-0.2-0.6-0.2-1.3-0.1-1.9
	c0.2-1.2,0.6-2.3,1.3-3.3c1.4-1.9,3.3-3.2,5.6-3.9c3.1-0.9,6.2-0.7,9,0.9c3.1,1.7,4.9,4.3,5.5,7.7c0.4,2.2,0.1,4.4-0.6,6.5
	c-1.4,3.9-3.8,6.9-7.1,9.3c-2.7,1.9-5.7,3.1-9.1,3.6c-1.6,0.2-3.3,0.2-4.9,0c-1.5-0.2-3.1-0.4-4.6-0.8c-2.1-0.6-4.1-1.4-5.9-2.7
	c-3.4-2.6-5.5-5.9-6.3-10.1c-0.1-0.7-0.2-1.5-0.2-2.2c0-0.2,0-0.4,0-0.5c-0.1-3.3,0.9-6.3,2.6-9.1c1.7-2.8,3.9-5,6.6-6.7
	c2.4-1.6,5-2.7,7.8-3.4C23.1,31.2,23.7,31.1,24.3,30.9z"/>
<path class="st0" d="M163.9,18.7c-0.1,0.2-0.3,0.4-0.4,0.6c-4.4,8-8.5,16.1-12.4,24.3c-1.7,3.7-3.5,7.3-5.4,10.8
	c-1,1.9-2.1,3.6-3.5,5.2c-3.1,3.7-7,6-11.7,7c-1.8,0.4-3.6,0.6-5.5,0.5c-2-0.1-4-0.5-5.8-1.3c-2-0.9-3.5-2.2-4.5-4.2
	c-0.2-0.5-0.4-0.9-0.4-1.4c0-1.1,1-2,2.1-2c0.3,0,0.6,0.1,0.8,0.3c0.2,0.2,0.4,0.4,0.6,0.7c0.2,0.2,0.3,0.4,0.4,0.6
	c0.9,1.8,2.5,2.8,4.4,3.2c1,0.2,2,0.2,3.1,0.2c2,0,4-0.2,6-0.8c3.5-1.1,6.2-3.2,8.4-6c0.7-0.9,1.3-1.8,1.8-2.8
	c1.5-2.7,3-5.6,4.3-8.4c3.3-7.1,6.9-14.1,10.6-21.1c0.9-1.7,1.7-3.3,2.6-5c0.1-0.3,0.3-0.6,0.4-0.9c0.1-0.5,0-0.8-0.5-1
	c-0.2-0.1-0.4-0.2-0.6-0.2c-1.7-0.5-3.4-0.8-5.1-1.1c-2-0.3-4.1-0.3-6.1-0.2c-5.5,0.3-10.7,1.6-15.4,4.5c-5.3,3.3-8.9,7.9-10.8,13.9
	c-0.7,2.2-0.9,4.5-0.7,6.8c0.2,2.1,0.8,4.1,1.7,6.1c0.6,1.3,1.4,2.6,2.5,3.7c1.3,1.4,2.9,2.5,4.7,3.3c0.4,0.2,0.8,0.3,1.1,0.5
	c0.8,0.5,1.2,1.2,1.3,2.1c0.1,0.4-0.1,0.8-0.5,1c-0.7,0.5-1.5,0.7-2.3,0.5c-0.4-0.1-0.7-0.2-1.1-0.4c-2.4-1-4.4-2.6-6-4.5
	c-2.7-3.1-4.3-6.6-5-10.6c-0.3-1.9-0.3-3.8-0.1-5.7c0.9-7.4,5.1-15,12.7-19.9c3.4-2.2,7.2-3.7,11.1-4.5c3.3-0.7,6.7-1,10.1-0.8
	c3.1,0.1,6.2,0.6,9.2,1.4c2.2,0.6,4.4,1.3,6.6,1.9c2.8,0.8,5.6,1.6,8.4,2.2c1.4,0.3,2.9,0.5,4.3,0.5c1.6-0.1,3.1-0.4,4.5-1.1
	c0.4-0.2,0.7-0.4,1.1-0.6c1.3-0.8,2.1-2,2.4-3.4c0.1-0.3,0.2-0.7,0.3-1c0.3-0.6,0.8-0.9,1.5-0.9c0.1,0,0.1,0,0.2,0
	c1,0.1,1.6,0.7,1.7,1.7c0.1,0.9-0.1,1.7-0.3,2.5c-0.4,1-1,1.9-1.7,2.7c-1.7,1.6-3.7,2.8-5.9,3.4c-1.8,0.5-3.6,0.6-5.4,0.5
	c-2.1-0.2-4.1-0.6-6.2-1.1c-2.2-0.5-4.5-1.1-6.7-1.6C164.4,18.8,164.1,18.7,163.9,18.7z"/>
<path d="M222.2,61.8c-1,0-2-0.1-2.9-0.4c-0.5-0.2-1-0.4-1.4-0.6c-1.4-0.9-2.2-2.2-2.2-3.9c0-1.1,0.2-2.2,0.6-3.2
	c0.6-1.4,1.1-2.7,1.8-4.1c1.4-2.9,2.8-5.8,4.2-8.7c0.4-0.8,0.7-1.6,1.2-2.3c1.2-2.2,2.9-3.9,5.3-4.9c2-0.8,4-0.8,6,0.1
	c0.5,0.2,0.9,0.5,1.3,0.8c0.9,0.8,1.4,1.7,1.5,2.9c0.1,1.3-0.1,2.5-0.5,3.7c-0.2,0.5-0.3,1.1-0.6,1.6c-1.7,3.8-3.4,7.6-5.3,11.2
	c-1.1,2-2.4,3.8-3.9,5.5c-1,1.1-2.2,1.9-3.7,2.1C223.1,61.7,222.6,61.7,222.2,61.8z M221.6,58c0.2,0,0.4,0,0.5,0
	c1.8-0.1,3.2-1,4-2.7c0.3-0.7,0.7-1.3,1-2c2.2-4.4,4.3-8.8,6.2-13.3c0.1-0.3,0.3-0.6,0.3-0.9c0.2-0.9-0.4-1.8-1.3-2.1
	c-0.4-0.1-0.8-0.1-1.2,0c-0.8,0.2-1.5,0.6-2.2,1c-0.9,0.5-1.5,1.3-2,2.2c-1.5,2.8-2.9,5.6-4.2,8.4c-1,2.1-1.9,4.1-2.9,6.2
	c-0.2,0.4-0.4,0.8-0.4,1.3c-0.1,0.9,0.5,1.7,1.4,1.8C221.1,58,221.4,58,221.6,58z"/>
<path d="M255.6,32.2c0,4.2-3.4,7.7-7.7,7.7c-4,0-7.7-3.2-7.7-7.7c0-4.3,3.4-7.7,7.7-7.7C252.4,24.5,255.6,28.2,255.6,32.2z
	 M247.9,25.7c-3.6,0-6.4,2.9-6.4,6.5c0,3.4,2.6,6.4,6.4,6.4c3.6,0,6.4-2.9,6.4-6.4C254.3,28.4,251.2,25.7,247.9,25.7z"/>
<path d="M144.1,75.5c0,0.5-0.1,1.1-0.3,1.5c-0.4,1-1.4,1.5-2.4,1.5c-1.1-0.1-1.8-0.6-2.2-1.6c-0.3-0.9-0.3-1.8,0.1-2.7
	c0.6-1.3,1.9-1.8,3.2-1.3c0.8,0.3,1.3,0.9,1.5,1.6C144,74.8,144,75.1,144.1,75.5z M139.7,75.6c0,0.5,0.1,1,0.3,1.4
	c0.3,0.6,0.8,0.9,1.4,0.9c0.7,0,1.2-0.3,1.5-0.9c0.5-0.9,0.5-1.8,0-2.8c-0.3-0.6-0.8-0.9-1.5-0.9c-0.7,0-1.2,0.4-1.5,1
	C139.7,74.6,139.6,75.1,139.7,75.6z"/>
<path d="M134.9,75.5c0,0.4-0.1,0.9-0.2,1.3c-0.4,1-1.3,1.7-2.4,1.7c-1.1,0-2-0.6-2.4-1.7c-0.3-0.9-0.3-1.7,0.1-2.5
	c0.6-1.4,1.9-1.8,3.2-1.4c1,0.3,1.5,1.1,1.6,2.1C134.9,75.1,134.9,75.3,134.9,75.5z M134.1,75.6c0-0.6-0.1-1.1-0.4-1.6
	c-0.7-1-2.1-1-2.7,0c-0.6,1-0.6,2,0,3c0.7,1.2,2.2,1.1,2.9,0C134,76.6,134.1,76.1,134.1,75.6z"/>
<path d="M185.1,76c-0.1,0.8,0,1.6,0,2.3c-0.3,0.1-0.5,0.1-0.7,0c-0.1-0.6-0.1-4.9,0-5.5c0.8-0.2,1.6-0.2,2.5,0
	c1,0.3,1.3,1.7,0.5,2.4c-0.1,0.1-0.3,0.2-0.5,0.4c0.1,0.1,0.1,0.2,0.2,0.2c0.2,0.2,0.3,0.5,0.4,0.8c0.1,0.5,0.3,1.1,0.4,1.6
	c-0.2,0.2-0.4,0.1-0.7,0.1c-0.2-0.2-0.2-0.4-0.3-0.7c-0.1-0.3-0.1-0.6-0.2-0.9c-0.2-0.6-0.5-0.9-1.1-0.9C185.5,76,185.3,76,185.1,76
	z M185.1,75.3c0.6,0.2,1.1,0.1,1.6-0.2c0.4-0.2,0.4-0.6,0.4-1c-0.1-0.4-0.3-0.6-0.7-0.7c-0.4-0.1-0.8-0.1-1.2,0
	C185,74,185.1,74.6,185.1,75.3z"/>
<path d="M212.5,78.4c-0.2,0-0.3,0-0.4,0c-0.1,0-0.2,0-0.4,0c-0.1-0.3-0.2-0.6-0.2-0.8c-0.1-0.3-0.1-0.6-0.2-0.9
	c-0.2-0.5-0.5-0.7-1-0.7c-0.2,0-0.4,0-0.6,0c0,0.2-0.1,0.3-0.1,0.4c0,0.5,0,1,0,1.5c0,0.2,0,0.3,0,0.5c-0.2,0-0.4,0-0.6,0
	c0-0.1-0.1-0.1-0.1-0.2c0-0.1,0-0.2,0-0.3c0-1.5,0-3,0-4.6c0-0.1,0-0.3,0-0.4c0.2,0,0.3-0.1,0.5-0.1c0.6-0.1,1.1-0.1,1.7,0
	c0.6,0.1,1.1,0.4,1.2,1.1c0.1,0.7,0,1.2-0.6,1.6c-0.1,0.1-0.1,0.1-0.2,0.2c0.1,0.1,0.2,0.2,0.3,0.3c0.1,0.2,0.2,0.3,0.3,0.5
	C212.2,77.1,212.3,77.7,212.5,78.4z M209.6,75.3c0.5,0.1,0.9,0.1,1.3-0.1c0.4-0.1,0.7-0.5,0.7-0.9c0-0.4-0.2-0.8-0.6-1
	c-0.4-0.1-0.9-0.2-1.4,0c0,0.5,0,1,0,1.6C209.6,75.1,209.6,75.2,209.6,75.3z"/>
<path d="M154.4,76.7c-0.2,0.5-0.4,1.1-0.6,1.7c-0.1,0-0.2,0-0.3,0c-0.1,0-0.2,0-0.3,0c0-0.1,0-0.2,0-0.3c0.6-1.8,1.2-3.5,1.8-5.3
	c0.3-0.1,0.6-0.1,0.8,0c0.3,0.4,1.7,4.6,1.9,5.6c-0.2,0.1-0.4,0.1-0.7,0.1c-0.3-0.5-0.4-1.1-0.7-1.7C155.8,76.6,155,76.6,154.4,76.7
	z M155.3,73.5c-0.2,0.5-0.3,0.9-0.4,1.2c-0.1,0.4-0.3,0.7-0.3,1.2c0.5,0.1,1,0.1,1.5,0C155.9,75.1,155.6,74.4,155.3,73.5z"/>
<path d="M204.6,78.3c-0.1,0-0.2,0-0.2,0c-0.1,0-0.3,0-0.4,0c-0.3-0.5-0.4-1.2-0.7-1.7c-0.6-0.1-1.3,0-1.9,0
	c-0.2,0.3-0.3,0.6-0.4,0.9c-0.1,0.3-0.2,0.6-0.3,0.8c-0.3,0.1-0.5,0.1-0.7,0c0.1-0.5,1.6-5,1.9-5.6c0.3-0.1,0.5-0.1,0.8,0
	C203,73.2,204.5,77.6,204.6,78.3z M202.3,73.6c-0.3,0.9-0.5,1.6-0.8,2.4c0.5,0.1,1,0.1,1.6,0C202.9,75.2,202.6,74.4,202.3,73.6z"/>
<path d="M108.1,72.7c0.3,0,0.6,0,0.9,0c0.4,0.9,0.7,1.8,1,2.8c0.3,0.9,0.7,1.8,0.9,2.8c-0.3,0.2-0.5,0.1-0.7,0.1
	c-0.2-0.5-0.4-1.1-0.6-1.7c-0.6-0.1-1.3,0-1.9,0c-0.3,0.5-0.4,1.2-0.7,1.7c-0.2,0.1-0.4,0.1-0.7,0c0-0.1,0-0.2,0.1-0.3
	C106.9,76.3,107.5,74.5,108.1,72.7z M109.3,76c-0.3-0.8-0.5-1.5-0.8-2.3c-0.1,0.1-0.1,0.2-0.1,0.2c-0.2,0.6-0.4,1.2-0.6,1.8
	c0,0.1-0.1,0.2,0.1,0.3C108.3,76,108.8,76.1,109.3,76z"/>
<path d="M216.7,72.8c0.6-0.1,2.1-0.1,2.9,0c0.2,0.1,0.1,0.3,0.1,0.5c-0.1,0-0.1,0.1-0.2,0.1c-0.4,0-0.9,0-1.3,0c-0.2,0-0.4,0-0.7,0
	c-0.1,0.6-0.1,1.1,0,1.7c0.7,0.1,1.3,0,2,0.1c0.2,0.2,0.1,0.3,0.1,0.5c-0.7,0.2-1.4,0-2,0.1c0,0.1-0.1,0.2-0.1,0.3c0,0.5,0,1,0,1.6
	c0.2,0,0.3,0.1,0.4,0.1c0.5,0,0.9,0,1.4,0c0.2,0,0.4,0,0.5,0c0.2,0.2,0.1,0.4,0.1,0.5c-0.2,0.1-2.3,0.1-3,0c0,0,0,0,0,0
	c0,0,0,0,0-0.1c0-1.7,0-3.3,0-5C216.7,73.1,216.7,73,216.7,72.8z"/>
<path d="M179.7,75.2c0,0.2,0,0.3,0,0.5c-0.7,0.2-1.4,0-2.1,0.1c0,0.6,0,1.2,0,1.9c0.4,0.1,0.8,0,1.2,0.1c0.4,0,0.8,0,1.2,0
	c0,0.2,0,0.4,0,0.5c-0.5,0.1-2.2,0.1-3,0c0-0.1-0.1-0.2-0.1-0.3c0-1.7,0-3.4,0-5.1c0-0.1,0-0.1,0-0.2c0.5-0.1,2.2-0.1,2.9,0
	c0,0.1,0.1,0.2,0.1,0.2c0,0.1,0,0.2,0,0.3c-0.7,0.1-1.5,0-2.2,0.1c-0.1,0.3-0.1,0.5-0.1,0.8c0,0.3,0,0.5,0,0.8
	C178.3,75.3,179,75,179.7,75.2z"/>
<path d="M195.9,77.7c0,0.1,0.1,0.1,0.1,0.2c0,0.1,0,0.2,0,0.3c-0.9,0.4-2.2,0.4-3-0.1c-0.5-0.3-0.8-0.7-1-1.2
	c-0.4-0.9-0.3-1.8,0-2.7c0.4-0.8,1-1.3,1.9-1.5c0.6-0.1,1.1-0.1,1.7,0c0.1,0,0.2,0.1,0.4,0.2c0,0.2-0.1,0.3-0.1,0.5
	c-0.1,0-0.2,0-0.3,0c-0.5-0.1-0.9-0.2-1.4-0.1c-0.7,0.2-1.2,0.6-1.5,1.3c-0.1,0.4-0.2,0.8-0.1,1.3c0.1,1.3,1.1,2.1,2.4,1.9
	C195.3,77.8,195.6,77.7,195.9,77.7z"/>
<path d="M164.8,75.3c0,0.2,0,0.3,0,0.4c-0.1,0-0.1,0.1-0.1,0.1c-0.4,0-0.7,0-1.1,0c-0.2,0-0.5,0-0.8,0c0,0.2-0.1,0.3-0.1,0.4
	c0,0.5,0,1,0,1.6c0,0.2,0,0.4,0,0.6c-0.2,0-0.4,0-0.6,0c0-0.1-0.1-0.3-0.1-0.4c0-1.6,0-3.2,0-4.8c0-0.1,0-0.3,0-0.4
	c0.5-0.1,2.3-0.1,3,0c0,0.1,0,0.2,0.1,0.2c0,0.1,0,0.2,0,0.3c-0.4,0.1-0.7,0-1.1,0c-0.4,0-0.7,0-1.1,0c-0.1,0.3-0.1,0.6-0.1,0.9
	c0,0.3,0,0.5,0,0.8C163.4,75.3,164,75.1,164.8,75.3z"/>
<path d="M100.1,73.4c-0.6,0-1.1,0-1.5,0c-0.2-0.2-0.2-0.4,0-0.6c0.7-0.1,3.5-0.1,4,0c0,0.2,0,0.3,0,0.5c-0.5,0-1.1,0-1.6,0.1
	c-0.1,0.9,0,1.7-0.1,2.5c0,0.8,0,1.6,0,2.4c-0.4,0.1-0.4,0.1-0.7,0c-0.1-0.5,0-1.1,0-1.6c0-0.5,0-1.1,0-1.6
	C100.1,74.5,100.2,74,100.1,73.4z"/>
<path d="M116.8,78.4c-0.2,0-0.4,0-0.6,0c-0.1-0.8,0-1.7,0-2.5c0-0.8,0-1.6,0-2.5c-0.6-0.1-1.1,0-1.7-0.1c0-0.2,0-0.3,0-0.5
	c0.1,0,0.2-0.1,0.3-0.1c1.2,0,2.5,0,3.7,0c0,0,0.1,0,0.2,0.1c0,0.1,0,0.3,0,0.5c-0.5,0.1-1.1,0-1.6,0.1c-0.2,0.2-0.1,0.4-0.1,0.6
	c0,1.2,0,2.5,0,3.7C116.9,77.9,116.9,78.1,116.8,78.4z"/>
<path d="M121.9,73.3c0-0.2,0-0.3,0-0.5c0.6-0.1,3.4-0.1,4.1,0c0,0.2,0,0.3,0,0.5c-0.6,0.2-1.1,0-1.6,0.1c-0.2,0.2-0.1,0.5-0.1,0.7
	c0,1.2,0,2.4,0,3.6c0,0.2,0,0.4,0,0.7c-0.2,0-0.4,0-0.6,0c0-0.1-0.1-0.1-0.1-0.1c0-0.2,0-0.5,0-0.7c0-1.1,0-2.3,0-3.4
	c0-0.2,0-0.4,0-0.7C123.1,73.3,122.5,73.4,121.9,73.3z"/>
<path d="M171.1,78.4c-0.3,0-0.4,0-0.6,0c-0.2-0.2-0.1-0.4-0.1-0.6c0-1.2,0-2.5,0-3.7c0-0.2,0.1-0.5-0.1-0.7c-0.5,0-1,0-1.6,0
	c0-0.2,0-0.4,0-0.6c0.1,0,0.2-0.1,0.3-0.1c1.2,0,2.4,0,3.6,0c0.1,0,0.1,0,0.2,0.1c0,0.2,0,0.3,0,0.5c-0.1,0-0.1,0.1-0.2,0.1
	c-0.3,0-0.6,0-0.9,0c-0.2,0-0.4,0-0.6,0c0,0.2-0.1,0.4-0.1,0.5c0,1.2,0,2.5,0,3.7C171.2,77.9,171.1,78.1,171.1,78.4z"/>
<path d="M245,28.4c0.4-0.4,1-0.6,1.5-0.7c0.8-0.2,1.6-0.2,2.4,0.1c1.7,0.6,2.1,2.3,1.7,3.6c-0.2,0.7-0.7,1.2-1.3,1.5
	c-0.2,0.1-0.4,0.2-0.6,0.3c0.1,0.5,0.3,0.9,0.5,1.3c0.3,0.5,0.7,0.6,1.3,0.5c0,0,0,0,0.1,0c0.4-0.1,0.6-0.1,0.8,0.2
	c0.2,0.4,0,0.8-0.3,0.9c-0.7,0.3-1.3,0.4-2,0c-0.4-0.2-0.6-0.5-0.9-0.9c-0.3-0.5-0.6-1-0.7-1.5c0-0.1-0.1-0.3-0.2-0.4
	c-0.1,0-0.3-0.1-0.4-0.1c-0.4-0.1-0.6-0.7-0.3-1.1c0.1-0.2,0.3-0.2,0.5-0.2c0.4,0,0.7,0,1.1,0c0.5-0.1,0.9-0.4,1.1-0.8
	c0.3-0.6,0.1-1.4-0.5-1.8c-0.3-0.2-0.7-0.4-1.2-0.4c-0.5,0-0.9,0-1.3,0.2c-0.2,0.2-0.1,0.5-0.1,0.7c0,1.8,0,3.6,0,5.3
	c0,0.2,0,0.4,0,0.5c0,0.3-0.3,0.5-0.6,0.5c-0.3,0-0.6-0.2-0.6-0.5c0-0.1,0-0.3,0-0.4c0-2.1,0-4.2,0-6.4C245,28.8,245,28.6,245,28.4z
	"/>
</svg>
