<svg id="Capa_1" enable-background="new 0 0 512 512" height="512" viewBox="0 0 512 512" width="512" xmlns="http://www.w3.org/2000/svg" fill="rgb(40, 40, 40)"><path d="m473.24 412.701c25.389-42.856 38.76-91.963 38.76-142.82 0-71.93-26.525-139.597-74.688-190.534-48.381-51.168-112.772-79.347-181.312-79.347s-132.93 28.179-181.312 79.347c-48.163 50.937-74.688 118.604-74.688 190.534 0 50.857 13.372 99.964 38.761 142.82l-20.268 19.567c-3.771 3.641-5.368 8.986-4.212 14.099s4.897 9.251 9.867 10.916l161.063 53.94c1.559.522 3.166.777 4.762.777 3.617 0 7.173-1.309 9.959-3.782 4.015-3.564 5.82-9.003 4.731-14.26l-36.144-174.538c-1.108-5.353-5.041-9.679-10.264-11.291-5.222-1.613-10.909-.255-14.843 3.541l-20.283 19.581c-7.89-19.273-12.013-40.159-12.013-61.37 0-84.967 64.995-154.093 144.884-154.093s144.884 69.126 144.884 154.093c0 21.211-4.124 42.097-12.013 61.37l-20.283-19.581c-3.933-3.797-9.619-5.155-14.843-3.541-5.223 1.612-9.156 5.938-10.264 11.291l-36.143 174.539c-1.089 5.257.716 10.696 4.731 14.26 2.787 2.473 6.342 3.782 9.959 3.782 1.596 0 3.204-.255 4.762-.777l161.063-53.94c4.97-1.665 8.711-5.803 9.867-10.916s-.441-10.458-4.212-14.099zm-328.578-60.539 25.332 122.328-112.883-37.805 11.344-10.952c.014-.014.029-.028.044-.042zm111.338-266.374c-96.432 0-174.884 82.584-174.884 184.093 0 29.116 6.567 57.753 19.064 83.525l-19.228 18.563-19.938 19.249c-20.339-36.738-31.014-78.321-31.014-121.337 0-64.232 23.612-124.579 66.486-169.922 42.657-45.114 99.307-69.959 159.514-69.959s116.857 24.845 159.514 69.959c42.874 45.343 66.486 105.689 66.486 169.922 0 43.016-10.675 84.599-31.013 121.337l-19.938-19.249-19.228-18.563c12.497-25.772 19.064-54.409 19.064-83.525 0-101.509-78.453-184.093-174.885-184.093zm86.007 388.702 25.332-122.328 76.164 73.53c.014.014.029.028.044.042l11.344 10.952z"/></svg>