<svg id="Capa_1" enable-background="new 0 0 511.996 511.996" height="512" viewBox="0 0 511.996 511.996" width="512" xmlns="http://www.w3.org/2000/svg" fill="rgb(40, 40, 40)"><g><path d="m91.505 509.252 35.549-27.562c.229.015.459.033.688.033 2.701 0 5.402-1.028 7.459-3.083l16.043-16.043c4.241 1.756 9.528 1.046 13.204-2.633l12.682-12.681c10.366 8.552 25.89 8.065 35.684-1.727l23.921-23.921c2.929-2.929 2.929-7.678 0-10.606-2.93-2.929-7.678-2.929-10.607 0l-23.92 23.92c-4.495 4.494-11.878 4.497-16.373 0 0 0-37.226-37.226-38.089-38.088-4.514-4.514-4.514-11.859 0-16.373l78.399-78.399c4.493-4.495 11.878-4.494 16.372 0 4.547 4.547 33.527 33.526 38.089 38.088 4.514 4.514 4.514 11.859 0 16.373l-29.729 29.729c-2.929 2.929-2.929 7.678 0 10.606 2.93 2.929 7.678 2.929 10.607 0l29.729-29.729c9.894-9.895 10.333-25.71 1.332-36.14l4.398-4.398 7.075 7.074c8.175 8.174 21.475 8.175 29.651 0 8.174-8.174 8.174-21.476 0-29.651l-7.075-7.075 10.219-10.219c3.666-3.666 4.443-9.131 2.359-13.574l69.235-69.235c8.922.448 17.428-2.827 23.725-9.124 5.91-5.91 9.164-13.768 9.164-22.126s-3.254-16.215-9.164-22.125h-.001c-6.813-6.814-16.012-9.817-24.933-9.021l-57.157-57.157c-2.932-2.93-7.68-2.928-10.607 0-2.929 2.929-2.929 7.678 0 10.606l52.297 52.296c-3.293 2.364-6.149 5.463-8.19 8.686-.002-.002-94.791-94.792-94.792-94.792l-29.412-29.412c-6.427-6.426-16.877-6.425-23.304 0l-86.272 86.273c-6.426 6.424-6.428 16.876-.001 23.303 11.96 11.96 110.34 110.34 125.361 125.361l-8.438 8.438-125.361-125.36c-11.077-11.077-11.077-29.101 0-40.178l86.274-86.274c11.075-11.076 29.1-11.078 40.177 0l46.913 46.913c2.93 2.929 7.678 2.928 10.607 0 2.929-2.929 2.929-7.678 0-10.606l-46.913-46.914c-16.965-16.965-44.425-16.967-61.392 0l-86.274 86.274c-16.925 16.925-16.925 44.465 0 61.391l125.362 125.361-4.398 4.398c-10.412-8.992-26.236-8.571-36.141 1.333l-78.399 78.399c-9.749 9.75-10.322 25.253-1.725 35.683l-12.685 12.684c-3.56 3.562-4.432 8.806-2.623 13.196l-16.053 16.053c-2.23 2.231-3.239 5.22-3.049 8.146l-27.56 35.547c-4.029 5.196-3.578 12.341 1.07 16.99 4.655 4.656 11.802 5.096 16.992 1.072zm231.557-186.165c-2.327 2.327-6.112 2.326-8.438 0l-7.075-7.074 8.438-8.438 7.074 7.075c2.327 2.325 2.327 6.111.001 8.437zm75.403-161.895c.007-.007.013-.015.021-.022.005-.005.011-.01.017-.016 6.341-6.323 16.664-6.344 23.022.015 6.353 6.352 6.353 16.687 0 23.039-6.375 6.376-16.72 6.322-23.038 0-6.376-6.376-6.306-16.706-.022-23.016zm-14.402 29.001c2.161 3.199 5.073 6.158 8.438 8.438l-63.425 63.425-8.438-8.438zm-199.587-35.345-24.11-24.11c-.561-.561-.567-1.521.001-2.089l86.273-86.274c.566-.565 1.522-.567 2.089 0l24.11 24.11-6.027 6.027-3.372-3.372c-7.127-7.126-18.717-7.125-25.843 0l-50.468 50.467c-7.124 7.125-7.124 18.718 0 25.842l3.373 3.373zm85.708-53.121-50.468 50.467c-1.259 1.26-3.366 1.262-4.628 0l-17.352-17.352c-1.255-1.254-1.255-3.375 0-4.629l50.468-50.467c1.259-1.26 3.366-1.262 4.628 0l17.352 17.352c1.255 1.254 1.255 3.375 0 4.629zm-34.924 103.906-40.178-40.178 6.027-6.027 3.373 3.373c7.127 7.126 18.716 7.124 25.842 0l50.468-50.467c7.124-7.125 7.124-18.718 0-25.842l-3.373-3.373 6.027-6.027 40.178 40.178-6.027 6.027-3.373-3.373c-7.127-7.126-18.716-7.124-25.842 0l-50.468 50.467c-7.124 7.125-7.124 18.717.001 25.842l3.372 3.372zm85.709-53.121-50.468 50.467c-.822.823-1.803.946-2.314.946s-1.491-.123-2.314-.946l-8.668-8.668c-.002-.002-.004-.005-.007-.008s-.005-.004-.008-.007l-8.668-8.668c-1.255-1.254-1.255-3.375 0-4.629l50.468-50.467c1.259-1.26 3.366-1.262 4.628 0l17.352 17.352c1.254 1.253 1.254 3.373-.001 4.628zm-75.102 63.728 6.027-6.027 3.372 3.372c3.443 3.443 8.032 5.339 12.921 5.339 4.89 0 9.479-1.896 12.922-5.339l50.468-50.467c7.124-7.125 7.124-18.718 0-25.842l-3.373-3.373 6.027-6.027 44.507 44.507c-.006.629.003 1.258.034 1.886l-69.247 69.247c-4.519-2.13-9.94-1.276-13.58 2.363l-10.218 10.221zm58.556 42.377 19.654 19.654c-4.994 4.994-37.528 37.528-42.082 42.083l-19.653-19.654c4.153-4.154 37.118-37.12 42.081-42.083zm-158.492 157.643 20.505 20.505-10.554 10.553-20.505-20.505zm-15.874 26.446 9.932 9.932-12.246 12.246-9.932-9.932zm-19.985 25.721.715.715 3.48 3.481-18.674 14.479z"/></g></svg>